# xmcd
#
# Track frame offsets:
#	150
#	23902
#	53337
#	72663
#	98116
#	116561
#	134220
#	152002
#	163445
#	181748
#	199640
#	214619
#	237203
#	257312
#	281760
#	299142
#	324354
#
# Disc length: 4577 seconds
#
# Revision: 0
# Processed by: cddbd v1.5.2PL0 Copyright (c) Steve Scherf et al.
# Submitted via: audiograbber 1.83.01
#
DISCID=fe11df11
DTITLE=Elvis Presley - Way Down In The Jungle Room CD2
DYEAR=2016
DGENRE=Country
TTITLE0=Bitter They Are, Harder They Fall (Take 1)
TTITLE1=She Thinks I Still Care (Take 10)
TTITLE2=The Last Farewell (Take 2)
TTITLE3=Solitaire (Take 7)
TTITLE4=I'll Never Fall In Love Again (Take 5)
TTITLE5=Moody Blue (Take 1)
TTITLE6=For The Heart (Take 1)
TTITLE7=Hurt (Take 3)
TTITLE8=Danny Boy (Take 9)
TTITLE9=Never Again (Take 9)
TTITLE10=Love Coming Down (Take 3)
TTITLE11=Blue Eyes Crying In The Rain (Take 4)
TTITLE12=She Thinks I Still Care (Alternate Version, Take 2)
TTITLE13=It's Easy For You (Take 1)
TTITLE14=Way Down (Take 2)
TTITLE15=Pledging My Love (Take 3)
TTITLE16=For The Heart (Take 4)
EXTD=
EXTT0=
EXTT1=
EXTT2=
EXTT3=
EXTT4=
EXTT5=
EXTT6=
EXTT7=
EXTT8=
EXTT9=
EXTT10=
EXTT11=
EXTT12=
EXTT13=
EXTT14=
EXTT15=
EXTT16=
PLAYORDER=
